<mxfile host="app.diagrams.net" modified="2020-09-14T18:02:09.644Z" agent="5.0 (Windows)" etag="22zgHTEEgeyFO4RBJwJV" version="13.7.0" type="github">
  <diagram id="nDA8aQCzDmiNM6Ca7pvY" name="Page-1">
    <mxGraphModel dx="868" dy="479" grid="1" gridSize="10" guides="1" tooltips="1" connect="1" arrows="1" fold="1" page="1" pageScale="1" pageWidth="850" pageHeight="1100" math="0" shadow="0">
      <root>
        <mxCell id="0" />
        <mxCell id="1" parent="0" />
        <mxCell id="28Xc4rK1BpBXyph3r4fT-1" style="edgeStyle=orthogonalEdgeStyle;rounded=0;orthogonalLoop=1;jettySize=auto;html=1;exitX=0.5;exitY=1;exitDx=0;exitDy=0;entryX=0.575;entryY=0.033;entryDx=0;entryDy=0;entryPerimeter=0;" edge="1" parent="1" source="28Xc4rK1BpBXyph3r4fT-2" target="28Xc4rK1BpBXyph3r4fT-4">
          <mxGeometry relative="1" as="geometry" />
        </mxCell>
        <mxCell id="28Xc4rK1BpBXyph3r4fT-2" value="Start" style="ellipse;whiteSpace=wrap;html=1;" vertex="1" parent="1">
          <mxGeometry x="110" y="10" width="120" height="80" as="geometry" />
        </mxCell>
        <mxCell id="28Xc4rK1BpBXyph3r4fT-3" style="edgeStyle=orthogonalEdgeStyle;rounded=0;orthogonalLoop=1;jettySize=auto;html=1;exitX=0.5;exitY=1;exitDx=0;exitDy=0;entryX=0.558;entryY=0.017;entryDx=0;entryDy=0;entryPerimeter=0;" edge="1" parent="1" source="28Xc4rK1BpBXyph3r4fT-4" target="28Xc4rK1BpBXyph3r4fT-8">
          <mxGeometry relative="1" as="geometry" />
        </mxCell>
        <mxCell id="28Xc4rK1BpBXyph3r4fT-4" value="Enter Starting Balance:" style="shape=parallelogram;perimeter=parallelogramPerimeter;whiteSpace=wrap;html=1;fixedSize=1;" vertex="1" parent="1">
          <mxGeometry x="60" y="180" width="120" height="60" as="geometry" />
        </mxCell>
        <mxCell id="28Xc4rK1BpBXyph3r4fT-5" value="yes" style="text;html=1;strokeColor=none;fillColor=none;align=center;verticalAlign=middle;whiteSpace=wrap;rounded=0;" vertex="1" parent="1">
          <mxGeometry x="180" y="120" width="40" height="20" as="geometry" />
        </mxCell>
        <mxCell id="28Xc4rK1BpBXyph3r4fT-6" value="end " style="ellipse;whiteSpace=wrap;html=1;" vertex="1" parent="1">
          <mxGeometry x="165" y="660" width="120" height="80" as="geometry" />
        </mxCell>
        <mxCell id="28Xc4rK1BpBXyph3r4fT-7" style="edgeStyle=orthogonalEdgeStyle;rounded=0;orthogonalLoop=1;jettySize=auto;html=1;exitX=0.5;exitY=1;exitDx=0;exitDy=0;" edge="1" parent="1" source="28Xc4rK1BpBXyph3r4fT-8" target="28Xc4rK1BpBXyph3r4fT-11">
          <mxGeometry relative="1" as="geometry" />
        </mxCell>
        <mxCell id="28Xc4rK1BpBXyph3r4fT-8" value="Enter Yearly Contribution:" style="shape=parallelogram;perimeter=parallelogramPerimeter;whiteSpace=wrap;html=1;fixedSize=1;" vertex="1" parent="1">
          <mxGeometry x="55" y="290" width="120" height="60" as="geometry" />
        </mxCell>
        <mxCell id="28Xc4rK1BpBXyph3r4fT-9" value="yes" style="text;html=1;strokeColor=none;fillColor=none;align=center;verticalAlign=middle;whiteSpace=wrap;rounded=0;" vertex="1" parent="1">
          <mxGeometry x="110" y="250" width="40" height="20" as="geometry" />
        </mxCell>
        <mxCell id="28Xc4rK1BpBXyph3r4fT-10" style="edgeStyle=orthogonalEdgeStyle;rounded=0;orthogonalLoop=1;jettySize=auto;html=1;exitX=0.5;exitY=1;exitDx=0;exitDy=0;entryX=0.5;entryY=0;entryDx=0;entryDy=0;" edge="1" parent="1" source="28Xc4rK1BpBXyph3r4fT-11" target="28Xc4rK1BpBXyph3r4fT-14">
          <mxGeometry relative="1" as="geometry" />
        </mxCell>
        <mxCell id="28Xc4rK1BpBXyph3r4fT-11" value="Enter Average Return On Investment as %:" style="shape=parallelogram;perimeter=parallelogramPerimeter;whiteSpace=wrap;html=1;fixedSize=1;" vertex="1" parent="1">
          <mxGeometry x="30" y="400" width="150" height="90" as="geometry" />
        </mxCell>
        <mxCell id="28Xc4rK1BpBXyph3r4fT-12" value="yes" style="text;html=1;strokeColor=none;fillColor=none;align=center;verticalAlign=middle;whiteSpace=wrap;rounded=0;" vertex="1" parent="1">
          <mxGeometry x="120" y="370" width="40" height="20" as="geometry" />
        </mxCell>
        <mxCell id="28Xc4rK1BpBXyph3r4fT-13" style="edgeStyle=orthogonalEdgeStyle;rounded=0;orthogonalLoop=1;jettySize=auto;html=1;exitX=0.5;exitY=1;exitDx=0;exitDy=0;entryX=0;entryY=0.6;entryDx=0;entryDy=0;entryPerimeter=0;" edge="1" parent="1" source="28Xc4rK1BpBXyph3r4fT-14" target="28Xc4rK1BpBXyph3r4fT-6">
          <mxGeometry relative="1" as="geometry">
            <mxPoint x="150" y="1090" as="targetPoint" />
          </mxGeometry>
        </mxCell>
        <mxCell id="28Xc4rK1BpBXyph3r4fT-14" value="Enter Number of years:" style="shape=parallelogram;perimeter=parallelogramPerimeter;whiteSpace=wrap;html=1;fixedSize=1;" vertex="1" parent="1">
          <mxGeometry x="10" y="580" width="150" height="90" as="geometry" />
        </mxCell>
        <mxCell id="28Xc4rK1BpBXyph3r4fT-15" value="yes" style="text;html=1;strokeColor=none;fillColor=none;align=center;verticalAlign=middle;whiteSpace=wrap;rounded=0;" vertex="1" parent="1">
          <mxGeometry x="60" y="500" width="40" height="20" as="geometry" />
        </mxCell>
        <mxCell id="28Xc4rK1BpBXyph3r4fT-16" value="yes" style="text;html=1;strokeColor=none;fillColor=none;align=center;verticalAlign=middle;whiteSpace=wrap;rounded=0;" vertex="1" parent="1">
          <mxGeometry x="90" y="650" width="40" height="20" as="geometry" />
        </mxCell>
      </root>
    </mxGraphModel>
  </diagram>
</mxfile>
